<svg width="42" height="36" viewBox="0 0 42 36" fill="none" xmlns="http://www.w3.org/2000/svg">
<path d="M37.8 0H4.2C1.89 0 0.021 2.025 0.021 4.5L0 31.5C0 33.975 1.89 36 4.2 36H37.8C40.11 36 42 33.975 42 31.5V4.5C42 2.025 40.11 0 37.8 0ZM36.96 9.5625L22.113 19.5075C21.441 19.9575 20.559 19.9575 19.887 19.5075L5.04 9.5625C4.515 9.2025 4.2 8.595 4.2 7.9425C4.2 6.435 5.733 5.535 6.93 6.3225L21 15.75L35.07 6.3225C36.267 5.535 37.8 6.435 37.8 7.9425C37.8 8.595 37.485 9.2025 36.96 9.5625Z" fill="#F8F8F8"/>
</svg>
